<svg xmlns="http://www.w3.org/2000/svg" xmlns:svg="http://www.w3.org/2000/svg" xmlns:xlink="http://www.w3.org/1999/xlink" id="svg8" width="256" height="256" version="1.1" viewBox="0 0 67.733 67.733"><defs id="defs2"><linearGradient id="linearGradient6075"><stop style="stop-color:#dcffdc;stop-opacity:1" id="stop6071" offset="0"/><stop style="stop-color:#dcffdc;stop-opacity:0" id="stop6073" offset="1"/></linearGradient><linearGradient id="linearGradient6077" x1="19.149" x2="48.963" y1="278.457" y2="247.795" gradientUnits="userSpaceOnUse" xlink:href="#linearGradient6075"/></defs><metadata id="metadata5"/><g id="layer1" transform="translate(0,-229.26665)"><rect style="opacity:1;vector-effect:none;fill:#f0e9e3;fill-opacity:.70718235;stroke:#75bccb;stroke-width:4.04039764;stroke-linecap:butt;stroke-linejoin:miter;stroke-miterlimit:4;stroke-dasharray:none;stroke-dashoffset:0;stroke-opacity:1" id="rect4485" width="63.693" height="63.693" x="2.02" y="231.287"/><rect style="opacity:1;vector-effect:none;fill:none;fill-opacity:1;stroke:#c5e6eb;stroke-width:3.11949277;stroke-linecap:round;stroke-linejoin:miter;stroke-miterlimit:4;stroke-dasharray:none;stroke-dashoffset:0;stroke-opacity:.91764706" id="rect6137" width="60.91" height="60.91" x="3.412" y="232.678"/><path style="opacity:1;vector-effect:none;fill:#bbe7ef;fill-opacity:.70718235;fill-rule:nonzero;stroke:#75bccb;stroke-width:1.32291651;stroke-linecap:butt;stroke-linejoin:miter;stroke-miterlimit:4;stroke-dasharray:none;stroke-dashoffset:0;stroke-opacity:1" id="rect5065" d="m 23.552103,239.19492 31.475738,34.92204 -13.704093,8.31324 -1.997192,-2.64404 1.883183,-4.48763 -5.877565,-0.80048 1.883182,-4.48763 -5.877565,-0.80048 1.883182,-4.48762 -5.877565,-0.80048 1.883182,-4.48762 -5.877564,-0.80048 1.883181,-4.48762 -5.877564,-0.80049 1.883182,-4.48762 -5.877566,-0.80048 1.883183,-4.48762 -5.877566,-0.80048 -1.9971908,-2.64406 z"/><path style="opacity:1;vector-effect:none;fill:#b0713b;fill-opacity:.70718234;fill-rule:nonzero;stroke:#671c00;stroke-width:1.32299995;stroke-linecap:butt;stroke-linejoin:miter;stroke-miterlimit:4;stroke-dasharray:none;stroke-dashoffset:0;stroke-opacity:1" id="rect5068" d="m 59.338031,280.21429 c -12.650826,-3.64476 -12.107214,3.40415 -13.629924,8.4331 -1.371166,-2.39954 -4.384359,-6.21719 -4.384359,-6.21719 l 13.629925,-8.4331 z"/><rect style="opacity:1;vector-effect:none;fill:#671c00;fill-opacity:1;fill-rule:nonzero;stroke:none;stroke-width:4.4979167;stroke-linecap:butt;stroke-linejoin:miter;stroke-miterlimit:4;stroke-dasharray:none;stroke-dashoffset:0;stroke-opacity:1" id="rect4506" width="17.407" height="3.671" x="-123.098" y="265.156" transform="rotate(-33.749318)"/></g></svg>