<svg xmlns="http://www.w3.org/2000/svg" xmlns:svg="http://www.w3.org/2000/svg" xmlns:xlink="http://www.w3.org/1999/xlink" id="svg8" width="256" height="256" version="1.1" viewBox="0 0 67.733 67.733"><defs id="defs2"><linearGradient id="linearGradient6075"><stop style="stop-color:#dcffdc;stop-opacity:1" id="stop6071" offset="0"/><stop style="stop-color:#dcffdc;stop-opacity:0" id="stop6073" offset="1"/></linearGradient><linearGradient id="linearGradient6077" x1="19.149" x2="48.963" y1="278.457" y2="247.795" gradientUnits="userSpaceOnUse" xlink:href="#linearGradient6075"/></defs><metadata id="metadata5"/><g id="layer1" transform="translate(0,-229.26665)"><rect style="opacity:1;vector-effect:none;fill:#fdffbd;fill-opacity:.70718235;stroke:#d2ce14;stroke-width:4.04039764;stroke-linecap:butt;stroke-linejoin:miter;stroke-miterlimit:4;stroke-dasharray:none;stroke-dashoffset:0;stroke-opacity:1" id="rect4485" width="63.693" height="63.693" x="2.02" y="231.287"/><path style="opacity:1;vector-effect:none;fill:#f9fc00;fill-opacity:1;stroke:#c9c500;stroke-width:1.32291663;stroke-linecap:round;stroke-linejoin:miter;stroke-miterlimit:4;stroke-dasharray:none;stroke-dashoffset:0;stroke-opacity:1" id="rect6139-2" d="m 46.121439,245.95337 11.143217,2.93076 -11.143217,2.92533 H 41.56821 37.01498 l -5.958751,1.4688 -12.254167,-1.4688 H 9.6956032 v -5.85609 h 9.1064588 l 12.254167,-1.3367 5.958751,1.3367 h 4.55323 z"/><rect style="opacity:1;vector-effect:none;fill:none;fill-opacity:1;stroke:#fffb14;stroke-width:3.11949277;stroke-linecap:round;stroke-linejoin:miter;stroke-miterlimit:4;stroke-dasharray:none;stroke-dashoffset:0;stroke-opacity:1" id="rect6137" width="60.91" height="60.91" x="3.412" y="232.678"/><path style="opacity:1;vector-effect:none;fill:#f9fc00;fill-opacity:1;stroke:#c9c500;stroke-width:1.32291663;stroke-linecap:round;stroke-linejoin:miter;stroke-miterlimit:4;stroke-dasharray:none;stroke-dashoffset:0;stroke-opacity:1" id="rect6139-2-2" d="m 46.121439,260.22238 11.143218,2.93076 -11.143218,2.92533 h -4.553228 -4.55323 l -5.958752,1.4688 -12.254167,-1.4688 H 9.6956027 v -5.85609 h 9.1064593 l 12.254167,-1.3367 5.958752,1.3367 h 4.55323 z"/><path style="opacity:1;vector-effect:none;fill:#f9fc00;fill-opacity:1;stroke:#c9c500;stroke-width:1.32291663;stroke-linecap:round;stroke-linejoin:miter;stroke-miterlimit:4;stroke-dasharray:none;stroke-dashoffset:0;stroke-opacity:1" id="rect6139-2-7" d="m 46.121439,274.41195 11.143218,2.93076 -11.143218,2.92534 h -4.553228 -4.55323 l -5.958752,1.4688 -12.254166,-1.4688 H 9.6956039 v -5.8561 h 9.1064591 l 12.254166,-1.33669 5.958752,1.33669 h 4.55323 z"/><path style="opacity:1;vector-effect:none;fill:#f9fc00;fill-opacity:1;stroke:#c9c500;stroke-width:1.32291663;stroke-linecap:round;stroke-linejoin:miter;stroke-miterlimit:4;stroke-dasharray:none;stroke-dashoffset:0;stroke-opacity:1" id="rect6139" d="m 14.933874,241.87093 h 16.11894 v 2.06067 41.20596 h -16.11894 z"/></g></svg>