<svg xmlns="http://www.w3.org/2000/svg" xmlns:svg="http://www.w3.org/2000/svg" xmlns:xlink="http://www.w3.org/1999/xlink" id="svg8" width="256" height="256" version="1.1" viewBox="0 0 67.733 67.733"><defs id="defs2"><linearGradient id="linearGradient6075"><stop style="stop-color:#dcffdc;stop-opacity:1" id="stop6071" offset="0"/><stop style="stop-color:#dcffdc;stop-opacity:0" id="stop6073" offset="1"/></linearGradient><linearGradient id="linearGradient6077" x1="19.149" x2="48.963" y1="278.457" y2="247.795" gradientUnits="userSpaceOnUse" xlink:href="#linearGradient6075"/></defs><metadata id="metadata5"/><g id="layer1" transform="translate(0,-229.26665)"><rect style="opacity:1;vector-effect:none;fill:#fff;fill-opacity:.70718235;stroke:#1c2a7e;stroke-width:4.04039764;stroke-linecap:butt;stroke-linejoin:miter;stroke-miterlimit:4;stroke-dasharray:none;stroke-dashoffset:0;stroke-opacity:1" id="rect4485" width="63.693" height="63.693" x="2.02" y="231.287"/><rect style="opacity:1;vector-effect:none;fill:none;fill-opacity:1;stroke:#1ea8b6;stroke-width:3.11949277;stroke-linecap:round;stroke-linejoin:miter;stroke-miterlimit:4;stroke-dasharray:none;stroke-dashoffset:0;stroke-opacity:1" id="rect6137" width="60.91" height="60.91" x="3.412" y="232.678"/><path style="fill:none;fill-rule:evenodd;stroke:#000;stroke-width:3.243;stroke-linecap:butt;stroke-linejoin:miter;stroke-miterlimit:4;stroke-dasharray:none;stroke-opacity:1" id="path4511" d="m 27.422867,276.21583 c 0.900573,-0.9841 1.499665,-2.24044 1.697444,-3.55967 0.101333,-0.67592 0.09957,-1.36267 0.157832,-2.04365 0.05826,-0.68098 0.181645,-1.37107 0.510462,-1.97024 0.453569,-0.8265 1.256865,-1.40531 2.095197,-1.83662 1.018697,-0.5241 2.118372,-0.86963 3.21691,-1.19465 1.731084,-0.51217 3.521483,-0.98434 5.31911,-0.81848 1.605238,0.14811 3.155034,0.81751 4.377554,1.86831 0.91356,0.78523 1.640686,1.76977 2.229421,2.82076 0.642692,1.14731 1.131563,2.39504 1.300225,3.69924 0.05307,0.41036 0.07439,0.8249 0.145248,1.23256 0.07086,0.40766 0.19477,0.81408 0.432551,1.15271 0.1117,0.15907 0.247415,0.30125 0.401124,0.42023"/><path style="fill:none;fill-rule:evenodd;stroke:#000;stroke-width:3.243;stroke-linecap:butt;stroke-linejoin:miter;stroke-miterlimit:4;stroke-dasharray:none;stroke-opacity:1" id="path4517" d="m 39.547274,264.51123 c 1.292303,-3.03877 2.014878,-6.31872 2.119122,-9.61922 0.02744,-0.86861 0.0023,-1.77962 -0.417178,-2.54074 -0.263161,-0.47752 -0.6698,-0.86698 -1.131847,-1.15645 -0.462047,-0.28947 -0.978857,-0.48293 -1.506006,-0.62219 -1.054299,-0.27853 -2.156514,-0.34619 -3.206416,-0.64086 -0.863841,-0.24245 -1.693643,-0.63846 -2.586912,-0.72256 -1.066236,-0.10038 -2.131305,0.25729 -3.066304,0.77951 -0.934998,0.52222 -1.767604,1.20607 -2.638444,1.82943 -0.546407,0.39112 -1.109238,0.7593 -1.686513,1.10324"/><path style="fill:none;fill-rule:evenodd;stroke:#000;stroke-width:3.243;stroke-linecap:butt;stroke-linejoin:miter;stroke-miterlimit:4;stroke-dasharray:none;stroke-opacity:1" id="path4523" d="m 41.173719,252.34763 c 0.406838,-0.39857 0.847509,-0.7626 1.315718,-1.08688 0.314961,-0.21814 0.644741,-0.4195 1.002814,-0.55577 0.358073,-0.13627 0.747329,-0.20557 1.126984,-0.15411 0.550798,0.0747 1.043247,0.39842 1.42518,0.80225 0.381933,0.40383 0.667886,0.88684 0.953597,1.36362 0.617319,1.03016 1.248891,2.05189 1.903657,3.05866 0.577495,0.88796 1.172989,1.76421 1.785993,2.62804"/><ellipse style="opacity:1;vector-effect:none;fill:#000;fill-opacity:1;fill-rule:nonzero;stroke:none;stroke-width:3.243;stroke-linecap:butt;stroke-linejoin:miter;stroke-miterlimit:4;stroke-dasharray:none;stroke-dashoffset:0;stroke-opacity:1" id="path4529" cx="41.426" cy="244.847" rx="5.004" ry="4.023"/><ellipse style="opacity:1;vector-effect:none;fill:#457683;fill-opacity:1;fill-rule:nonzero;stroke:#0500ff;stroke-width:3.07960367;stroke-linecap:butt;stroke-linejoin:miter;stroke-miterlimit:4;stroke-dasharray:none;stroke-dashoffset:0;stroke-opacity:1" id="path4733" cx="15.348" cy="256.588" rx="4.434" ry="23.823" transform="matrix(0.93003069,0.36748185,-0.00781127,0.99996949,0,0)"/><path style="fill:none;fill-rule:evenodd;stroke:#ca0000;stroke-width:2.936875;stroke-linecap:butt;stroke-linejoin:miter;stroke-miterlimit:4;stroke-dasharray:none;stroke-opacity:1" id="path4652" d="m 17.825149,283.11693 c 3.032216,0.71959 6.123562,1.18985 9.232593,1.40449 1.150926,0.0795 2.30934,0.12459 3.440049,0.35359 0.708384,0.14347 1.402205,0.35874 2.067383,0.64146"/><path style="fill:none;fill-rule:evenodd;stroke:#ca0000;stroke-width:2.936875;stroke-linecap:butt;stroke-linejoin:miter;stroke-miterlimit:4;stroke-dasharray:none;stroke-opacity:1" id="path4659" d="m 17.825149,288.08741 c 1.689083,-0.32562 3.402627,-0.52429 5.121407,-0.59376 2.306054,-0.0932 4.660678,0.0402 6.876289,-0.60602 1.266678,-0.36946 2.453803,-0.98586 3.732403,-1.31168 2.439501,-0.62164 5.005697,-0.14532 7.489651,0.26404 2.483955,0.40937 5.10492,0.73718 7.460074,-0.15212 1.30196,-0.49162 2.439471,-1.32732 3.585504,-2.11687 2.465764,-1.69878 5.049569,-3.22619 7.72661,-4.56756"/><path style="fill:none;fill-rule:evenodd;stroke:#ca0000;stroke-width:2.936875;stroke-linecap:butt;stroke-linejoin:miter;stroke-miterlimit:4;stroke-dasharray:none;stroke-opacity:1" id="path4665" d="m 47.990785,285.85926 c 0.618926,0.22336 1.261563,0.38095 1.913605,0.46927 1.727594,0.23399 3.524409,-0.0147 5.194875,0.48418 0.519515,0.15515 1.015174,0.37983 1.523643,0.56805 1.185558,0.43886 2.444495,0.67876 3.708366,0.70665"/><ellipse style="opacity:1;vector-effect:none;fill:#ff1d1d;fill-opacity:1;fill-rule:nonzero;stroke:#ca0000;stroke-width:2.936875;stroke-linecap:butt;stroke-linejoin:miter;stroke-miterlimit:4;stroke-dasharray:none;stroke-dashoffset:0;stroke-opacity:1" id="path4529-4" cx="47.881" cy="281.686" rx="1.98" ry="1.392"/><path style="fill:none;fill-rule:evenodd;stroke:#000;stroke-width:1.00541667;stroke-linecap:butt;stroke-linejoin:miter;stroke-opacity:1;stroke-miterlimit:4;stroke-dasharray:none" id="path4829" d="M 30.679824,243.52454 H 21.595853"/><path style="fill:none;fill-rule:evenodd;stroke:#000;stroke-width:1.00541667;stroke-linecap:butt;stroke-linejoin:miter;stroke-opacity:1;stroke-miterlimit:4;stroke-dasharray:none" id="path4837" d="m 27.080514,245.92408 h -7.8842"/><path style="fill:none;fill-rule:evenodd;stroke:#000;stroke-width:1.00541667;stroke-linecap:butt;stroke-linejoin:miter;stroke-opacity:1;stroke-miterlimit:4;stroke-dasharray:none" id="path4849" d="M 22.624227,249.86618 H 18.339336"/><path style="fill:none;fill-rule:evenodd;stroke:#000;stroke-width:1.00541667;stroke-linecap:butt;stroke-linejoin:miter;stroke-opacity:1;stroke-miterlimit:4;stroke-dasharray:none" id="path4855" d="M 27.251911,256.03642 H 19.196314"/><path style="fill:none;fill-rule:evenodd;stroke:#000;stroke-width:1.00541667;stroke-linecap:butt;stroke-linejoin:miter;stroke-opacity:1;stroke-miterlimit:4;stroke-dasharray:none" id="path4861" d="M 33.422153,259.80712 H 21.938645"/><path style="fill:none;fill-rule:evenodd;stroke:#000;stroke-width:1.00541667;stroke-linecap:butt;stroke-linejoin:miter;stroke-opacity:1;stroke-miterlimit:4;stroke-dasharray:none" id="path4867" d="M 24.50958,264.6062 H 20.053293"/></g></svg>